<mxfile host="app.diagrams.net" modified="2021-06-07T06:06:03.886Z" agent="5.0 (Windows NT 10.0; Win64; x64) AppleWebKit/537.36 (KHTML, like Gecko) Chrome/91.0.4472.77 Safari/537.36" etag="xlBQ32SOaKgA5ioZi2Cd" version="14.7.3" type="github" pages="3">
  <diagram name="Page-1" id="64c3da0e-402f-94eb-ee01-a36477274f13">
    <mxGraphModel dx="52" dy="575" grid="1" gridSize="10" guides="1" tooltips="1" connect="1" arrows="1" fold="1" page="1" pageScale="1" pageWidth="1169" pageHeight="826" background="none" math="0" shadow="0">
      <root>
        <mxCell id="0" />
        <mxCell id="1" parent="0" />
        <mxCell id="2" value="Project Manager" style="whiteSpace=wrap;rounded=1;shadow=1;fillColor=#10739E;strokeColor=none;fontColor=#FFFFFF;fontStyle=1;fontSize=24" parent="1" vertex="1">
          <mxGeometry x="1360" y="60" width="340" height="60" as="geometry" />
        </mxCell>
        <mxCell id="3" value="Business Analyst" style="whiteSpace=wrap;rounded=1;fillColor=#F2931E;strokeColor=none;shadow=1;fontColor=#FFFFFF;fontStyle=1;fontSize=14" parent="1" vertex="1">
          <mxGeometry x="1220" y="189.9999999999998" width="140" height="60" as="geometry" />
        </mxCell>
        <mxCell id="4" value="Quality Assurance" style="whiteSpace=wrap;rounded=1;fillColor=#F2931E;strokeColor=none;shadow=1;fontColor=#FFFFFF;fontStyle=1;fontSize=14" parent="1" vertex="1">
          <mxGeometry x="1460" y="189.9999999999998" width="140" height="60" as="geometry" />
        </mxCell>
        <mxCell id="6" value="Software Engineer / Senior Software Engineer" style="whiteSpace=wrap;rounded=1;fillColor=#F2931E;strokeColor=none;shadow=1;fontColor=#FFFFFF;fontStyle=1;fontSize=14" parent="1" vertex="1">
          <mxGeometry x="1700" y="189.9999999999998" width="140" height="60" as="geometry" />
        </mxCell>
        <mxCell id="134" value="Intern" style="whiteSpace=wrap;rounded=1;fillColor=#12AAB5;strokeColor=none;shadow=1;fontColor=#FFFFFF;" parent="1" vertex="1">
          <mxGeometry x="1709.9999999999998" y="300.0000000000001" width="120" height="60" as="geometry" />
        </mxCell>
        <mxCell id="222" value="" style="edgeStyle=elbowEdgeStyle;elbow=vertical;rounded=0;fontColor=#000000;endArrow=none;endFill=0;strokeWidth=8;strokeColor=#23445D;" parent="1" source="6" target="134" edge="1">
          <mxGeometry width="100" height="100" relative="1" as="geometry">
            <mxPoint x="1960" y="300" as="sourcePoint" />
            <mxPoint x="2060" y="200" as="targetPoint" />
          </mxGeometry>
        </mxCell>
        <mxCell id="229" value="" style="edgeStyle=elbowEdgeStyle;elbow=vertical;rounded=0;fontColor=#000000;endArrow=none;endFill=0;strokeWidth=8;strokeColor=#23445D;" parent="1" source="2" target="3" edge="1">
          <mxGeometry width="100" height="100" relative="1" as="geometry">
            <mxPoint x="900" y="150" as="sourcePoint" />
            <mxPoint x="1000" y="50" as="targetPoint" />
          </mxGeometry>
        </mxCell>
        <mxCell id="230" value="" style="edgeStyle=elbowEdgeStyle;elbow=vertical;rounded=0;fontColor=#000000;endArrow=none;endFill=0;strokeWidth=8;strokeColor=#23445D;" parent="1" source="2" target="4" edge="1">
          <mxGeometry width="100" height="100" relative="1" as="geometry">
            <mxPoint x="910" y="160" as="sourcePoint" />
            <mxPoint x="1010" y="60" as="targetPoint" />
          </mxGeometry>
        </mxCell>
        <mxCell id="231" value="" style="edgeStyle=elbowEdgeStyle;elbow=vertical;rounded=0;fontColor=#000000;endArrow=none;endFill=0;strokeWidth=8;strokeColor=#23445D;" parent="1" source="2" target="6" edge="1">
          <mxGeometry width="100" height="100" relative="1" as="geometry">
            <mxPoint x="920" y="170" as="sourcePoint" />
            <mxPoint x="1020" y="70" as="targetPoint" />
          </mxGeometry>
        </mxCell>
      </root>
    </mxGraphModel>
  </diagram>
  <diagram id="WJrzx-q4AhLLttn7zGjm" name="Page-2">
    <mxGraphModel dx="1221" dy="575" grid="1" gridSize="10" guides="1" tooltips="1" connect="1" arrows="1" fold="1" page="1" pageScale="1" pageWidth="850" pageHeight="1100" math="0" shadow="0">
      <root>
        <mxCell id="r6uyHHZdy3gZ8kFdjCn2-0" />
        <mxCell id="r6uyHHZdy3gZ8kFdjCn2-1" parent="r6uyHHZdy3gZ8kFdjCn2-0" />
        <mxCell id="r6uyHHZdy3gZ8kFdjCn2-2" value="January" style="shape=step;perimeter=stepPerimeter;whiteSpace=wrap;html=1;fixedSize=1;fillColor=#1ba1e2;strokeColor=#006EAF;fontColor=#ffffff;fontFamily=Times New Roman;fontStyle=1" vertex="1" parent="r6uyHHZdy3gZ8kFdjCn2-1">
          <mxGeometry x="50" y="130" width="120" height="80" as="geometry" />
        </mxCell>
        <mxCell id="r6uyHHZdy3gZ8kFdjCn2-3" value="Feburary" style="shape=step;perimeter=stepPerimeter;whiteSpace=wrap;html=1;fixedSize=1;fillColor=#d80073;strokeColor=#A50040;fontColor=#ffffff;fontFamily=Times New Roman;fontStyle=1" vertex="1" parent="r6uyHHZdy3gZ8kFdjCn2-1">
          <mxGeometry x="190" y="130" width="120" height="80" as="geometry" />
        </mxCell>
        <mxCell id="r6uyHHZdy3gZ8kFdjCn2-4" value="March" style="shape=step;perimeter=stepPerimeter;whiteSpace=wrap;html=1;fixedSize=1;fillColor=#6a00ff;strokeColor=#3700CC;fontColor=#ffffff;fontFamily=Times New Roman;fontStyle=1" vertex="1" parent="r6uyHHZdy3gZ8kFdjCn2-1">
          <mxGeometry x="330" y="130" width="120" height="80" as="geometry" />
        </mxCell>
        <mxCell id="r6uyHHZdy3gZ8kFdjCn2-5" value="April" style="shape=step;perimeter=stepPerimeter;whiteSpace=wrap;html=1;fixedSize=1;fillColor=#0050ef;strokeColor=#001DBC;fontColor=#ffffff;fontFamily=Times New Roman;fontStyle=1" vertex="1" parent="r6uyHHZdy3gZ8kFdjCn2-1">
          <mxGeometry x="480" y="130" width="120" height="80" as="geometry" />
        </mxCell>
        <mxCell id="r6uyHHZdy3gZ8kFdjCn2-6" value="May" style="shape=step;perimeter=stepPerimeter;whiteSpace=wrap;html=1;fixedSize=1;fillColor=#60a917;strokeColor=#2D7600;fontColor=#ffffff;fontFamily=Times New Roman;fontStyle=1" vertex="1" parent="r6uyHHZdy3gZ8kFdjCn2-1">
          <mxGeometry x="625" y="130" width="120" height="80" as="geometry" />
        </mxCell>
        <mxCell id="r6uyHHZdy3gZ8kFdjCn2-8" value="&lt;h1&gt;Nettium&lt;/h1&gt;&lt;p&gt;- Attend e-orientation&lt;br&gt;&lt;span&gt;- Attend training&lt;br&gt;&lt;/span&gt;&lt;span&gt;- Do assignment&lt;/span&gt;&lt;/p&gt;" style="text;html=1;strokeColor=none;fillColor=none;spacing=5;spacingTop=-20;whiteSpace=wrap;overflow=hidden;rounded=0;fontFamily=Times New Roman;fontStyle=1" vertex="1" parent="r6uyHHZdy3gZ8kFdjCn2-1">
          <mxGeometry x="50" y="240" width="120" height="230" as="geometry" />
        </mxCell>
        <mxCell id="r6uyHHZdy3gZ8kFdjCn2-9" value="&lt;h1&gt;Shiny team&lt;/h1&gt;&lt;p&gt;- Work on Promotion Banner module&lt;br&gt;- Work on OTP Registration module&lt;br&gt;- Attend training&lt;/p&gt;" style="text;html=1;strokeColor=none;fillColor=none;spacing=5;spacingTop=-20;whiteSpace=wrap;overflow=hidden;rounded=0;fontFamily=Times New Roman;fontStyle=1" vertex="1" parent="r6uyHHZdy3gZ8kFdjCn2-1">
          <mxGeometry x="185" y="240" width="135" height="130" as="geometry" />
        </mxCell>
        <mxCell id="r6uyHHZdy3gZ8kFdjCn2-16" value="Training Scopes" style="text;html=1;strokeColor=#3700CC;fillColor=#6a00ff;align=center;verticalAlign=middle;whiteSpace=wrap;rounded=0;fontFamily=Times New Roman;fontSize=43;fontStyle=1;labelBackgroundColor=none;labelBorderColor=none;fontColor=#ffffff;" vertex="1" parent="r6uyHHZdy3gZ8kFdjCn2-1">
          <mxGeometry x="50" y="30" width="730" height="70" as="geometry" />
        </mxCell>
        <mxCell id="r6uyHHZdy3gZ8kFdjCn2-17" value="&lt;h1&gt;Shiny team&lt;/h1&gt;&lt;p&gt;- Work on Promotion Banner module&lt;br&gt;- Work on OTP Registration module&lt;br&gt;- Attend training&lt;/p&gt;" style="text;html=1;strokeColor=none;fillColor=none;spacing=5;spacingTop=-20;whiteSpace=wrap;overflow=hidden;rounded=0;fontFamily=Times New Roman;fontStyle=1" vertex="1" parent="r6uyHHZdy3gZ8kFdjCn2-1">
          <mxGeometry x="322.5" y="240" width="135" height="130" as="geometry" />
        </mxCell>
        <mxCell id="r6uyHHZdy3gZ8kFdjCn2-18" value="&lt;h1&gt;Thanos team&lt;/h1&gt;&lt;p&gt;- Work on updating frontend UI, email template and removing country flag&lt;/p&gt;&lt;p class=&quot;MsoNormal&quot; style=&quot;text-align: justify&quot;&gt;&lt;b&gt;&lt;u&gt;&lt;span lang=&quot;EN-GB&quot; style=&quot;font-size: 11.0pt&quot;&gt;&lt;/span&gt;&lt;/u&gt;&lt;/b&gt;&lt;/p&gt;" style="text;html=1;strokeColor=none;fillColor=none;spacing=5;spacingTop=-20;whiteSpace=wrap;overflow=hidden;rounded=0;fontFamily=Times New Roman;fontStyle=1" vertex="1" parent="r6uyHHZdy3gZ8kFdjCn2-1">
          <mxGeometry x="320" y="370" width="150" height="130" as="geometry" />
        </mxCell>
        <mxCell id="r6uyHHZdy3gZ8kFdjCn2-19" value="&lt;h1&gt;Thanos team&lt;/h1&gt;&lt;p&gt;- Work on updating frontend UI, email template and removing country flag&lt;br&gt;- Fix bug at backend&lt;/p&gt;&lt;p class=&quot;MsoNormal&quot; style=&quot;text-align: justify&quot;&gt;&lt;b&gt;&lt;u&gt;&lt;span lang=&quot;EN-GB&quot; style=&quot;font-size: 11.0pt&quot;&gt;&lt;/span&gt;&lt;/u&gt;&lt;/b&gt;&lt;/p&gt;" style="text;html=1;strokeColor=none;fillColor=none;spacing=5;spacingTop=-20;whiteSpace=wrap;overflow=hidden;rounded=0;fontFamily=Times New Roman;fontStyle=1" vertex="1" parent="r6uyHHZdy3gZ8kFdjCn2-1">
          <mxGeometry x="470" y="240" width="150" height="130" as="geometry" />
        </mxCell>
        <mxCell id="r6uyHHZdy3gZ8kFdjCn2-20" value="&lt;h1&gt;Thanos team&lt;/h1&gt;&lt;p&gt;- Work on hiding unrelated transaction records at frontend&lt;/p&gt;&lt;p class=&quot;MsoNormal&quot; style=&quot;text-align: justify&quot;&gt;&lt;b&gt;&lt;u&gt;&lt;span lang=&quot;EN-GB&quot; style=&quot;font-size: 11.0pt&quot;&gt;&lt;/span&gt;&lt;/u&gt;&lt;/b&gt;&lt;/p&gt;" style="text;html=1;strokeColor=none;fillColor=none;spacing=5;spacingTop=-20;whiteSpace=wrap;overflow=hidden;rounded=0;fontFamily=Times New Roman;fontStyle=1" vertex="1" parent="r6uyHHZdy3gZ8kFdjCn2-1">
          <mxGeometry x="625" y="240" width="150" height="130" as="geometry" />
        </mxCell>
      </root>
    </mxGraphModel>
  </diagram>
  <diagram id="lpjyOTWefRbChzmjKKIW" name="Page-3">
    <mxGraphModel dx="1038" dy="489" grid="1" gridSize="10" guides="1" tooltips="1" connect="1" arrows="1" fold="1" page="1" pageScale="1" pageWidth="850" pageHeight="1100" math="0" shadow="0">
      <root>
        <mxCell id="8rDnTn3PYeqPShjbfssX-0" />
        <mxCell id="8rDnTn3PYeqPShjbfssX-1" parent="8rDnTn3PYeqPShjbfssX-0" />
        <mxCell id="8rDnTn3PYeqPShjbfssX-2" value="" style="rounded=0;whiteSpace=wrap;html=1;labelBackgroundColor=none;fontFamily=Times New Roman;fontSize=43;" vertex="1" parent="8rDnTn3PYeqPShjbfssX-1">
          <mxGeometry x="250" y="100" width="120" height="60" as="geometry" />
        </mxCell>
      </root>
    </mxGraphModel>
  </diagram>
</mxfile>
